<?xml version="1.0" encoding="UTF-8"?>
<svg width="3957px" height="1024px" viewBox="0 0 3957 1024" version="1.1" xmlns="http://www.w3.org/2000/svg" xmlns:xlink="http://www.w3.org/1999/xlink">
    <title>Logo light</title>
    <defs>
        <path d="M534.590909,318.828608 C534.590909,341.106941 516.445487,359.166667 494.061969,359.166667 L117.455462,359.166667 C117.455462,359.166667 109.375521,216.421023 308.750074,216.061132 L393.700722,152.510302 L124.938031,152.510302 C102.554513,152.510302 84.4090909,134.45015 84.4090909,112.171818 C84.4090909,89.8939109 102.554513,71.8333333 124.938031,71.8333333 L501.54411,71.8333333 C501.580055,73.5084248 501.514583,75.4748364 501.330151,77.6878481 C501.004078,82.2173669 500.299725,86.6421125 499.252611,90.9335494 C489.753694,133.963339 447.364595,216.056873 309.499786,216.056873 C309.24817,216.056873 309.001262,216.060706 308.750074,216.061132 L225.299278,278.490124 L494.061969,278.490124 C516.445487,278.490124 534.590909,296.54985 534.590909,318.828608 M619,0 L619,0 L115.76012,0 C51.8274777,0 0,51.8267009 0,115.759311 C0,179.095774 50.8683242,230.542467 113.978301,231.496221 C45.7609978,271.774163 0,346.042908 0,431 L0,431 L503.23988,431 C567.172522,431 619,379.172469 619,315.240274 L619,315.240274 C619,251.903811 568.131676,200.457118 505.021699,199.503365 C573.239417,159.225007 619,84.9570918 619,0" id="path-1"></path>
    </defs>
    <g id="Logo-light" stroke="none" stroke-width="1" fill="none" fill-rule="evenodd">
        <g id="Group-5" transform="translate(268.831478, 110.003242)">
            <g id="Group-6" transform="translate(0.000000, 194.668620)">
                <mask id="mask-2" fill="white">
                    <use xlink:href="#path-1"></use>
                </mask>
                <use id="Fill-21" fill="#050737" xlink:href="#path-1"></use>
            </g>
            <text id="Generaize" stroke="#050737" stroke-width="4" font-family="CenturyGothic-Bold, Century Gothic" font-size="561" font-weight="bold" letter-spacing="-11" fill="#050737">
                <tspan x="724" y="604">Generaize</tspan>
            </text>
        </g>
    </g>
</svg>